<svg width="335" height="202" viewBox="0 0 335 202" fill="none" xmlns="http://www.w3.org/2000/svg">
<path d="M24.088 176.832C19.864 176.832 15.928 176.256 12.28 175.104C8.632 173.952 5.704 172.032 3.496 169.344C1.192 166.656 0.0399995 163.104 0.0399995 158.688C0.0399995 157.152 0.183999 155.616 0.471998 154.08C0.471998 153.504 0.807998 153.216 1.48 153.216C2.056 153.216 2.344 153.456 2.344 153.936C2.344 154.512 2.344 155.04 2.344 155.52C2.248 156 2.2 156.48 2.2 156.96C2.2 161.088 3.4 164.448 5.8 167.04C8.104 169.632 11.128 171.504 14.872 172.656C18.616 173.904 22.6 174.528 26.824 174.528C29.896 174.528 32.968 174.192 36.04 173.52C39.112 172.944 41.944 172.128 44.536 171.072C50.2 168.672 55.48 165.36 60.376 161.136C65.272 157.008 69.928 152.496 74.344 147.6C73.672 147.696 72.952 147.744 72.184 147.744C71.512 147.84 70.792 147.888 70.024 147.888C67.528 147.888 65.08 147.648 62.68 147.168C60.376 146.688 58.168 146.016 56.056 145.152C49.048 141.984 43.96 137.664 40.792 132.192C37.72 126.624 36.184 120.576 36.184 114.048C36.184 109.536 36.808 104.928 38.056 100.224C39.4 95.424 41.272 90.816 43.672 86.4C43.096 83.808 42.808 81.12 42.808 78.336C42.808 72.672 44.056 66.96 46.552 61.2C49.048 55.344 52.696 50.016 57.496 45.216C62.392 40.32 68.44 36.384 75.64 33.408C82.84 30.432 91.192 28.944 100.696 28.944C108.184 28.944 115.048 30.192 121.288 32.688C127.528 35.088 132.712 38.64 136.84 43.344C140.968 47.952 143.56 53.616 144.616 60.336C149.608 54.864 154.408 49.968 159.016 45.648C163.624 41.328 167.992 37.968 172.12 35.568C175.768 33.456 179.272 31.92 182.632 30.96C185.992 30 189.16 29.52 192.136 29.52C197.32 29.52 201.544 30.864 204.808 33.552C208.168 36.144 209.848 39.6 209.848 43.92C209.848 47.856 208.168 52.368 204.808 57.456C201.448 62.448 195.832 67.632 187.96 73.008C184.312 75.504 180.52 77.712 176.584 79.632C172.744 81.552 168.808 83.184 164.776 84.528L161.176 90.432C160.312 91.776 159.112 93.84 157.576 96.624C156.04 99.312 154.36 102.384 152.536 105.84C150.808 109.296 149.128 112.896 147.496 116.64C145.864 120.288 144.52 123.792 143.464 127.152C142.408 130.512 141.88 133.44 141.88 135.936C141.88 138.72 142.744 140.64 144.472 141.696C145.144 142.08 146.008 142.272 147.064 142.272C149.368 142.272 151.912 141.216 154.696 139.104C157.576 136.896 160.456 133.872 163.336 130.032C166.312 126.096 169.048 121.536 171.544 116.352C171.832 115.872 172.168 115.632 172.552 115.632C173.224 115.632 173.416 116.016 173.128 116.784C170.632 121.968 167.896 126.672 164.92 130.896C162.04 135.12 158.968 138.528 155.704 141.12C152.536 143.616 149.224 144.864 145.768 144.864C141.928 144.864 139.096 143.664 137.272 141.264C135.544 138.768 134.68 135.552 134.68 131.616C134.776 124.224 136.6 116.832 140.152 109.44C143.8 102.048 148.264 94.848 153.544 87.84C151.24 88.32 148.936 88.8 146.632 89.28C144.424 89.664 142.12 90.048 139.72 90.432C138.952 92.448 138.04 94.464 136.984 96.48C135.928 98.496 134.728 100.608 133.384 102.816C125.416 115.872 116.776 125.952 107.464 133.056C98.248 140.064 89.368 144.576 80.824 146.592C75.736 151.872 70.216 156.864 64.264 161.568C58.312 166.368 51.976 170.112 45.256 172.8C42.184 174.048 38.776 175.008 35.032 175.68C31.384 176.448 27.736 176.832 24.088 176.832ZM106.168 87.696L122.872 86.976C126.136 82.848 129.352 78.816 132.52 74.88C135.688 70.944 138.808 67.2 141.88 63.648C141.208 56.736 138.904 50.928 134.968 46.224C131.128 41.52 126.136 37.968 119.992 35.568C113.944 33.072 107.272 31.824 99.976 31.824C90.952 31.824 83.032 33.36 76.216 36.432C69.4 39.504 63.688 43.536 59.08 48.528C54.568 53.52 51.208 58.944 49 64.8C46.888 70.56 46.024 76.176 46.408 81.648C51.976 72.72 58.264 66.288 65.272 62.352C72.376 58.32 79.048 56.304 85.288 56.304C89.512 56.304 93.352 57.168 96.808 58.896C100.264 60.528 103 62.88 105.016 65.952C107.032 69.024 108.04 72.768 108.04 77.184C108.04 80.544 107.416 84.048 106.168 87.696ZM141.736 85.392C147.112 84.816 152.296 83.952 157.288 82.8C163.432 75.216 169.864 68.064 176.584 61.344C183.4 54.528 189.304 48.336 194.296 42.768C194.776 42.288 195.16 42.048 195.448 42.048C195.928 42.048 196.168 42.384 196.168 43.056C196.168 43.44 195.976 43.776 195.592 44.064C191.656 47.904 187.192 53.04 182.2 59.472C177.304 65.904 172.456 72.768 167.656 80.064C170.92 79.008 174.088 77.808 177.16 76.464C180.328 75.024 183.352 73.392 186.232 71.568C194.008 66.672 199.576 61.92 202.936 57.312C206.392 52.704 208.12 48.672 208.12 45.216C208.12 41.952 206.92 39.408 204.52 37.584C202.12 35.664 198.856 34.704 194.728 34.704C191.944 34.704 188.824 35.232 185.368 36.288C181.912 37.248 178.264 38.832 174.424 41.04C170.008 43.728 165.304 47.424 160.312 52.128C155.416 56.832 150.376 62.16 145.192 68.112C145.096 73.392 143.944 79.152 141.736 85.392ZM57.64 102.528C59.176 99.456 62.104 96.624 66.424 94.032C70.84 91.44 76.888 89.76 84.568 88.992C90.904 88.416 97.48 87.984 104.296 87.696C105.544 84.24 106.168 80.88 106.168 77.616C106.168 71.856 104.248 67.344 100.408 64.08C96.664 60.72 91.96 59.04 86.296 59.04C82.264 59.04 77.944 60.048 73.336 62.064C68.728 63.984 64.168 67.008 59.656 71.136C55.144 75.264 51.016 80.688 47.272 87.408C48.04 90.48 49.288 93.312 51.016 95.904C52.744 98.496 54.952 100.704 57.64 102.528ZM129.928 86.544L138.424 85.824C139.384 83.328 140.104 80.928 140.584 78.624C141.16 76.32 141.544 74.112 141.736 72C139.816 74.304 137.848 76.704 135.832 79.2C133.912 81.6 131.944 84.048 129.928 86.544ZM83.56 143.568C91.24 141.264 99.16 136.8 107.32 130.176C115.48 123.552 123.112 114.336 130.216 102.528C131.464 100.512 132.568 98.544 133.528 96.624C134.584 94.704 135.544 92.832 136.408 91.008L125.32 92.304C119.464 99.6 113.56 107.04 107.608 114.624C101.752 122.112 95.944 129.264 90.184 136.08C89.128 137.328 88.024 138.576 86.872 139.824C85.816 141.072 84.712 142.32 83.56 143.568ZM70.312 145.728C72.328 145.728 74.392 145.584 76.504 145.296C78.232 143.28 79.912 141.264 81.544 139.248C83.272 137.232 84.904 135.264 86.44 133.344C91.624 127.104 96.856 120.528 102.136 113.616C107.512 106.704 112.84 99.84 118.12 93.024C115.72 93.216 113.272 93.408 110.776 93.6C108.28 93.792 105.784 93.984 103.288 94.176C101.464 97.536 98.92 100.896 95.656 104.256C92.488 107.52 88.504 110.688 83.704 113.76C80.824 115.584 78.136 116.88 75.64 117.648C73.144 118.416 70.792 118.8 68.584 118.8C64.744 118.8 61.72 117.744 59.512 115.632C57.304 113.52 56.2 110.976 56.2 108C56.2 106.656 56.392 105.408 56.776 104.256C54.088 102.72 51.784 100.848 49.864 98.64C47.944 96.432 46.408 93.984 45.256 91.296C43.432 95.232 41.944 99.264 40.792 103.392C39.736 107.52 39.208 111.552 39.208 115.488C39.208 121.344 40.552 126.768 43.24 131.76C46.024 136.656 50.584 140.448 56.92 143.136C60.952 144.864 65.416 145.728 70.312 145.728ZM68.584 116.928C70.312 116.928 72.328 116.544 74.632 115.776C77.032 115.008 79.672 113.76 82.552 112.032C87.064 109.248 90.808 106.368 93.784 103.392C96.856 100.416 99.304 97.44 101.128 94.464L91.336 95.328C84.328 96 78.664 97.344 74.344 99.36C70.024 101.376 66.856 103.536 64.84 105.84C68.296 106.8 72.232 107.232 76.648 107.136C77.704 107.136 78.232 107.376 78.232 107.856C78.232 108.336 77.752 108.576 76.792 108.576C74.392 108.672 72.088 108.624 69.88 108.432C67.768 108.144 65.752 107.712 63.832 107.136C62.68 108.864 62.104 110.448 62.104 111.888C62.104 113.328 62.632 114.528 63.688 115.488C64.84 116.448 66.472 116.928 68.584 116.928ZM181.911 144.72C177.879 144.72 175.863 142.464 175.863 137.952C175.863 136.224 176.199 134.16 176.871 131.76C177.543 129.36 178.599 126.72 180.039 123.84C180.807 122.112 181.863 120.048 183.207 117.648C184.551 115.152 185.751 112.704 186.807 110.304C187.959 107.904 188.535 105.984 188.535 104.544C188.535 103.104 187.767 102.384 186.231 102.384C185.559 102.384 184.695 102.576 183.639 102.96C182.583 103.248 181.143 103.632 179.319 104.112C178.551 106.032 177.303 108.72 175.575 112.176C173.943 115.536 172.119 118.992 170.103 122.544C168.087 126.096 166.167 129.168 164.343 131.76C164.343 131.76 164.295 131.808 164.199 131.904C164.199 131.904 164.103 131.904 163.911 131.904C163.719 131.904 163.431 131.856 163.047 131.76C162.759 131.568 162.663 131.424 162.759 131.328C164.295 129.12 165.879 126.576 167.511 123.696C169.143 120.72 170.679 117.792 172.119 114.912C173.655 112.032 174.903 109.584 175.863 107.568C176.919 105.456 177.495 104.208 177.591 103.824C176.151 103.344 174.999 102.24 174.135 100.512C173.367 98.688 172.983 96.864 172.983 95.04C172.983 93.408 173.367 92.016 174.135 90.864C174.903 89.712 176.055 89.136 177.591 89.136C178.743 89.136 179.511 89.76 179.895 91.008C180.375 92.16 180.615 93.552 180.615 95.184C180.615 97.296 180.375 99.408 179.895 101.52C179.895 101.52 180.423 101.424 181.479 101.232C182.535 101.04 183.783 100.896 185.223 100.8C186.663 100.608 187.911 100.512 188.967 100.512C192.135 100.512 193.719 102.048 193.719 105.12C193.719 107.04 193.191 109.536 192.135 112.608C191.079 115.584 189.735 119.04 188.103 122.976C184.839 130.752 183.207 136.224 183.207 139.392C183.207 141.312 183.831 142.272 185.079 142.272C186.615 142.272 188.775 141.024 191.559 138.528C194.343 136.032 196.887 132.912 199.191 129.168C201.591 125.328 204.519 120.192 207.975 113.76C208.071 113.568 208.215 113.472 208.407 113.472C208.695 113.472 208.935 113.616 209.127 113.904C209.415 114.096 209.511 114.288 209.415 114.48C204.135 124.464 199.527 132 195.591 137.088C191.655 142.176 187.095 144.72 181.911 144.72ZM213.899 144.72C210.155 144.72 208.283 142.704 208.283 138.672C208.283 135.312 209.771 130.416 212.747 123.984C213.611 122.256 214.571 120.192 215.627 117.792C216.779 115.392 217.739 113.088 218.507 110.88C219.371 108.576 219.803 106.704 219.803 105.264C219.803 103.92 219.323 103.248 218.363 103.248C217.211 103.248 216.059 103.968 214.907 105.408C213.755 106.848 212.699 108.48 211.739 110.304C210.875 112.032 210.155 113.424 209.579 114.48C208.139 117.264 206.507 120.288 204.683 123.552C202.859 126.816 201.035 129.696 199.211 132.192H199.067C198.875 132.192 198.587 132.096 198.203 131.904C197.915 131.616 197.819 131.424 197.915 131.328C199.739 128.832 201.515 125.952 203.243 122.688C205.067 119.424 206.603 116.448 207.851 113.76C208.907 111.744 210.011 109.68 211.163 107.568C212.411 105.36 213.851 103.536 215.483 102.096C217.115 100.56 218.987 99.792 221.099 99.792C224.651 99.792 226.427 101.184 226.427 103.968C226.427 105.792 225.851 108.24 224.699 111.312C223.547 114.384 222.011 118.272 220.091 122.976C218.363 127.008 217.067 130.416 216.203 133.2C215.435 135.888 215.051 138 215.051 139.536C215.051 141.36 215.675 142.272 216.923 142.272C218.267 142.272 220.427 141.024 223.403 138.528C225.995 136.224 228.491 133.392 230.891 130.032C233.291 126.576 235.883 121.92 238.667 116.064C239.435 114.528 240.203 112.608 240.971 110.304C241.835 107.904 242.555 105.792 243.131 103.968C243.803 102.144 244.139 101.232 244.139 101.232C245.771 100.848 247.595 100.368 249.611 99.792C251.627 99.12 253.403 98.448 254.939 97.776C253.979 98.736 252.587 100.896 250.763 104.256C249.035 107.616 247.211 111.456 245.291 115.776C243.467 120 241.883 124.128 240.539 128.16C238.907 132.768 238.091 136.464 238.091 139.248C238.091 141.552 238.811 142.704 240.251 142.704C240.923 142.704 241.739 142.416 242.699 141.84C243.755 141.264 245.003 140.352 246.443 139.104C247.691 138.048 248.843 136.8 249.899 135.36C251.051 133.92 252.155 132.432 253.211 130.896C254.651 128.784 256.139 126.336 257.675 123.552C259.307 120.768 261.083 117.504 263.003 113.76C263.195 113.472 263.339 113.328 263.435 113.328C263.723 113.328 263.963 113.472 264.155 113.76C264.443 113.952 264.539 114.144 264.443 114.336C259.259 124.512 254.699 132.144 250.763 137.232C246.827 142.224 242.555 144.72 237.947 144.72C236.123 144.72 234.779 144.096 233.915 142.848C233.147 141.6 232.763 139.92 232.763 137.808C232.763 136.176 232.955 134.352 233.339 132.336C233.723 130.32 234.251 128.256 234.923 126.144C231.371 132.288 227.963 136.944 224.699 140.112C221.435 143.184 217.835 144.72 213.899 144.72ZM267.732 145.44C261.588 145.44 257.364 144.336 255.06 142.128C252.851 139.92 251.747 137.472 251.747 134.784C251.747 132.288 252.371 130.032 253.62 128.016C254.868 125.904 256.116 124.656 257.364 124.272C258.228 122.736 259.14 121.056 260.1 119.232C261.156 117.408 262.116 115.632 262.98 113.904C264.708 110.448 266.484 107.184 268.308 104.112C270.132 100.944 272.1 98.4 274.212 96.48C276.42 94.56 278.724 93.6 281.124 93.6C282.276 93.6 283.476 93.84 284.724 94.32C285.972 94.896 286.596 95.472 286.596 96.048C286.596 96.432 286.404 96.72 286.02 96.912C285.636 97.104 285.204 97.152 284.724 97.056C282.996 96.576 281.412 97.056 279.972 98.496C278.532 99.936 277.812 101.904 277.812 104.4C277.812 104.784 277.812 105.216 277.812 105.696C277.908 106.08 278.004 106.512 278.1 106.992C278.676 109.296 279.252 111.936 279.828 114.912C280.5 117.888 280.836 120.912 280.836 123.984C280.836 125.136 280.788 126.288 280.692 127.44C280.596 128.592 280.356 129.696 279.972 130.752C278.724 134.304 276.996 137.136 274.788 139.248C272.676 141.264 270.084 142.752 267.012 143.712C269.316 143.808 271.716 143.616 274.212 143.136C276.804 142.56 279.012 141.744 280.836 140.688C284.004 138.864 286.788 136.368 289.188 133.2C291.684 130.032 293.892 126.72 295.812 123.264C297.732 119.712 299.46 116.496 300.996 113.616C301.092 113.232 301.38 113.04 301.86 113.04C302.148 113.04 302.388 113.184 302.58 113.472C302.772 113.664 302.772 113.904 302.58 114.192C300.66 117.744 298.692 121.344 296.676 124.992C294.66 128.544 292.404 131.856 289.908 134.928C287.412 137.904 284.436 140.352 280.98 142.272C277.236 144.384 272.82 145.44 267.732 145.44ZM261.828 142.992C263.748 142.992 265.716 142.368 267.732 141.12C269.748 139.872 271.188 138.048 272.052 135.648C273.108 132.672 273.732 129.36 273.924 125.712C274.212 121.968 274.355 118.464 274.355 115.2C274.355 111.936 274.404 109.44 274.5 107.712C274.692 105.024 275.412 102.528 276.66 100.224C277.908 97.824 280.02 96.384 282.996 95.904C282.324 95.52 281.652 95.328 280.98 95.328C279.348 95.328 277.668 96.048 275.94 97.488C274.212 98.928 272.916 100.224 272.052 101.376C270.708 103.2 269.412 105.36 268.164 107.856C266.916 110.352 265.524 112.992 263.988 115.776L259.668 123.552C259.956 123.456 260.388 123.408 260.964 123.408C262.5 123.408 263.46 123.84 263.844 124.704C264.324 125.568 264.468 126.192 264.276 126.576C263.988 126.48 263.7 126.432 263.412 126.432C263.22 126.336 263.028 126.288 262.836 126.288C261.204 126.288 259.764 126.96 258.516 128.304C257.364 129.648 256.548 131.136 256.068 132.768C255.876 133.44 255.732 134.112 255.636 134.784C255.54 135.36 255.492 135.888 255.492 136.368C255.492 138.672 256.116 140.352 257.364 141.408C258.612 142.464 260.1 142.992 261.828 142.992ZM322.552 90.72C321.208 90.72 320.056 90.288 319.096 89.424C318.232 88.464 317.8 87.36 317.8 86.112C317.8 84.48 318.328 83.088 319.384 81.936C320.536 80.784 321.88 80.208 323.416 80.208C324.76 80.208 325.912 80.688 326.872 81.648C327.832 82.608 328.312 83.808 328.312 85.248C328.312 86.784 327.736 88.08 326.584 89.136C325.432 90.192 324.088 90.72 322.552 90.72ZM306.712 144.72C304.984 144.72 303.592 144.096 302.536 142.848C301.576 141.504 301.096 139.776 301.096 137.664C301.096 134.976 301.624 132.096 302.68 129.024C303.832 125.952 305.128 122.88 306.568 119.808C308.104 116.64 309.448 113.664 310.6 110.88C311.08 109.536 311.512 108.336 311.896 107.28C312.28 106.224 312.472 105.36 312.472 104.688C312.472 103.728 312.04 103.248 311.176 103.248C310.024 103.248 308.872 103.968 307.72 105.408C306.568 106.848 305.512 108.48 304.552 110.304C303.688 112.032 302.968 113.424 302.392 114.48C300.952 117.264 299.368 120.144 297.64 123.12C296.008 126.096 294.328 128.832 292.6 131.328C292.6 131.424 292.504 131.472 292.312 131.472C292.12 131.472 291.88 131.328 291.592 131.04C291.304 130.752 291.208 130.56 291.304 130.464C293.128 127.872 294.808 125.136 296.344 122.256C297.976 119.28 299.464 116.448 300.808 113.76C301.768 111.744 302.824 109.68 303.976 107.568C305.224 105.36 306.664 103.536 308.296 102.096C309.928 100.56 311.8 99.792 313.912 99.792C314.872 99.792 315.976 100.032 317.224 100.512C318.664 101.088 319.384 102.336 319.384 104.256C319.384 105.216 319.192 106.368 318.808 107.712C318.52 108.96 318.088 110.4 317.512 112.032C316.264 115.296 314.872 118.608 313.336 121.968C311.896 125.232 310.552 128.544 309.304 131.904C308.344 134.496 307.864 136.8 307.864 138.816C307.864 141.024 308.584 142.128 310.024 142.128C311.368 142.128 313.432 140.928 316.216 138.528C319 136.032 321.592 132.912 323.992 129.168C326.392 125.328 329.272 120.192 332.632 113.76C332.728 113.568 332.92 113.472 333.208 113.472C333.4 113.472 333.592 113.616 333.784 113.904C334.072 114.096 334.168 114.288 334.072 114.48C328.984 124.368 324.424 131.904 320.392 137.088C316.36 142.176 311.8 144.72 306.712 144.72Z" fill="#FFAA99"/>
<path d="M120.86 178L116.564 161.2H118.292L121.844 175.108L125.384 161.2H126.872L130.424 175.108L133.964 161.2H135.692L131.42 178H129.428L126.128 165.1L122.828 178H120.86ZM150.334 178V161.2H160.558V162.88H152.014V168.16H159.082V169.84H152.014V176.32H160.558V178H150.334ZM175.845 178V161.2H181.401C182.561 161.2 183.649 161.42 184.665 161.86C185.681 162.292 186.573 162.896 187.341 163.672C188.109 164.44 188.709 165.332 189.141 166.348C189.581 167.356 189.801 168.44 189.801 169.6C189.801 170.76 189.581 171.848 189.141 172.864C188.709 173.872 188.109 174.764 187.341 175.54C186.573 176.308 185.681 176.912 184.665 177.352C183.649 177.784 182.561 178 181.401 178H175.845ZM177.525 176.32H181.401C182.329 176.32 183.197 176.148 184.005 175.804C184.821 175.452 185.537 174.968 186.153 174.352C186.769 173.736 187.249 173.024 187.593 172.216C187.945 171.4 188.121 170.528 188.121 169.6C188.121 168.672 187.945 167.804 187.593 166.996C187.249 166.18 186.765 165.464 186.141 164.848C185.525 164.232 184.813 163.752 184.005 163.408C183.197 163.056 182.329 162.88 181.401 162.88H177.525V176.32ZM204.497 178V161.2H210.053C211.213 161.2 212.301 161.42 213.317 161.86C214.333 162.292 215.225 162.896 215.993 163.672C216.761 164.44 217.361 165.332 217.793 166.348C218.233 167.356 218.453 168.44 218.453 169.6C218.453 170.76 218.233 171.848 217.793 172.864C217.361 173.872 216.761 174.764 215.993 175.54C215.225 176.308 214.333 176.912 213.317 177.352C212.301 177.784 211.213 178 210.053 178H204.497ZM206.177 176.32H210.053C210.981 176.32 211.849 176.148 212.657 175.804C213.473 175.452 214.189 174.968 214.805 174.352C215.421 173.736 215.901 173.024 216.245 172.216C216.597 171.4 216.773 170.528 216.773 169.6C216.773 168.672 216.597 167.804 216.245 166.996C215.901 166.18 215.417 165.464 214.793 164.848C214.177 164.232 213.465 163.752 212.657 163.408C211.849 163.056 210.981 162.88 210.053 162.88H206.177V176.32ZM233.509 178V161.2H235.189V178H233.509ZM250.902 178V161.2H252.726L261.594 174.964V161.2H263.274V178H261.462L252.582 164.236V178H250.902ZM286.428 178.312C285.276 178.312 284.196 178.088 283.188 177.64C282.188 177.184 281.312 176.556 280.56 175.756C279.808 174.948 279.22 174.02 278.796 172.972C278.372 171.916 278.16 170.788 278.16 169.588C278.16 168.364 278.38 167.224 278.82 166.168C279.26 165.112 279.864 164.192 280.632 163.408C281.4 162.616 282.28 162 283.272 161.56C284.272 161.12 285.332 160.9 286.452 160.9C287.74 160.9 288.956 161.2 290.1 161.8C291.252 162.4 292.228 163.252 293.028 164.356L291.528 165.172C290.888 164.332 290.116 163.688 289.212 163.24C288.316 162.792 287.392 162.568 286.44 162.568C285.536 162.568 284.684 162.752 283.884 163.12C283.092 163.48 282.392 163.984 281.784 164.632C281.176 165.28 280.7 166.028 280.356 166.876C280.012 167.724 279.84 168.636 279.84 169.612C279.84 170.58 280.012 171.488 280.356 172.336C280.7 173.184 281.172 173.932 281.772 174.58C282.38 175.22 283.084 175.724 283.884 176.092C284.684 176.452 285.54 176.632 286.452 176.632C287.204 176.632 287.916 176.504 288.588 176.248C289.268 175.984 289.888 175.616 290.448 175.144C291.008 174.672 291.48 174.12 291.864 173.488C292.256 172.856 292.54 172.168 292.716 171.424H288.18V169.9H294.672C294.648 171.06 294.416 172.148 293.976 173.164C293.536 174.18 292.936 175.076 292.176 175.852C291.424 176.62 290.556 177.224 289.572 177.664C288.596 178.096 287.548 178.312 286.428 178.312ZM315.574 178.312C314.678 178.312 313.81 178.172 312.97 177.892C312.138 177.612 311.41 177.212 310.786 176.692C310.162 176.172 309.722 175.552 309.466 174.832L311.038 174.244C311.214 174.74 311.534 175.168 311.998 175.528C312.47 175.88 313.018 176.152 313.642 176.344C314.274 176.536 314.918 176.632 315.574 176.632C316.342 176.632 317.058 176.504 317.722 176.248C318.386 175.992 318.922 175.636 319.33 175.18C319.738 174.716 319.942 174.172 319.942 173.548C319.942 172.916 319.73 172.396 319.306 171.988C318.882 171.58 318.334 171.26 317.662 171.028C316.998 170.788 316.302 170.604 315.574 170.476C314.43 170.276 313.402 170.004 312.49 169.66C311.586 169.316 310.87 168.832 310.342 168.208C309.814 167.576 309.55 166.744 309.55 165.712C309.55 164.744 309.83 163.904 310.39 163.192C310.95 162.48 311.686 161.928 312.598 161.536C313.518 161.144 314.51 160.948 315.574 160.948C316.446 160.948 317.298 161.084 318.13 161.356C318.962 161.628 319.694 162.024 320.326 162.544C320.966 163.064 321.426 163.7 321.706 164.452L320.11 165.028C319.934 164.524 319.61 164.096 319.138 163.744C318.674 163.384 318.13 163.112 317.506 162.928C316.882 162.736 316.238 162.64 315.574 162.64C314.814 162.632 314.102 162.76 313.438 163.024C312.782 163.28 312.25 163.64 311.842 164.104C311.434 164.56 311.23 165.096 311.23 165.712C311.23 166.432 311.418 166.988 311.794 167.38C312.178 167.764 312.698 168.052 313.354 168.244C314.01 168.436 314.75 168.608 315.574 168.76C316.646 168.944 317.642 169.232 318.562 169.624C319.482 170.008 320.222 170.524 320.782 171.172C321.342 171.812 321.622 172.604 321.622 173.548C321.622 174.508 321.342 175.348 320.782 176.068C320.222 176.78 319.482 177.332 318.562 177.724C317.65 178.116 316.654 178.312 315.574 178.312Z" fill="#FFEBE7"/>
</svg>
