<svg xmlns="http://www.w3.org/2000/svg" viewBox="0 0 50 44.44"><defs><style>.cls-1,.cls-2{fill:#ffcbc2;}.cls-1{isolation:isolate;opacity:0.4;}</style></defs><g id="Layer_2" data-name="Layer 2"><g id="Layer_1-2" data-name="Layer 1"><path class="cls-1" d="M48.76,16.67h-9l1,1.81A2.08,2.08,0,1,1,37,20.4L35.1,16.67H14.9L13,20.4a2.08,2.08,0,1,1-3.7-1.92l1-1.81h-9A1.24,1.24,0,0,0,0,17.91v2.92a1.39,1.39,0,0,0,1.39,1.39h2l4,17.87a5.54,5.54,0,0,0,5.42,4.35H37.21a5.53,5.53,0,0,0,5.42-4.35l4-17.87h2.15A1.24,1.24,0,0,0,50,21V17.91A1.24,1.24,0,0,0,48.76,16.67Z"/><path class="cls-2" d="M21.1.24a2.08,2.08,0,0,0-2.81.88l-9,17.36A2.09,2.09,0,0,0,13,20.41L22,3A2.07,2.07,0,0,0,21.1.24ZM40.74,18.48l-9-17.36A2.08,2.08,0,0,0,28,3l9,17.37a2.09,2.09,0,0,0,3.7-1.93Z"/></g></g></svg>