<svg xmlns="http://www.w3.org/2000/svg" viewBox="0 0 320 320"><defs><style>.cls-1,.cls-2{fill:#ffcbc2;}.cls-1{isolation:isolate;opacity:0.4;}</style></defs><g id="Layer_2" data-name="Layer 2"><g id="Layer_1-2" data-name="Layer 1"><path class="cls-1" d="M138.27,63.65,160.11,20l-20-20h-60L60,20,81.88,63.65A110.65,110.65,0,0,1,138.27,63.65ZM295.66,141a110,110,0,0,0-77-40.67,129.34,129.34,0,0,1,18.17,45,70,70,0,1,1-60.33,3.09q-.93-2.91-2.12-5.71l-.05-.13q-.36-.84-.75-1.68l-.09-.21c-.26-.56-.53-1.12-.8-1.67l-.06-.12c-.6-1.21-1.23-2.4-1.91-3.58v0c-.31-.55-.62-1.08-1-1.61-.08-.12-.15-.25-.24-.37-.24-.36-.48-.71-.69-1.09-.11-.2-.24-.39-.37-.59-.29-.44-.58-.87-.88-1.29l-.22-.35c-.75-1.08-1.53-2.12-2.33-3.13l-.3-.37c-.31-.38-.63-.75-.92-1.13l-.42-.5c-.28-.33-.57-.66-.86-1l-.45-.52c-.31-.33-.63-.67-.92-1l-.41-.45-1.36-1.4a70.39,70.39,0,0,0-5.69-5.08,109.78,109.78,0,0,0-38.87,150c.46.79.93,1.58,1.41,2.35s1,1.54,1.47,2.3v0c.49.76,1,1.51,1.51,2.25l0,0c.51.75,1,1.49,1.57,2.22s1.08,1.47,1.63,2.18,1.13,1.45,1.71,2.17A110,110,0,0,0,295.66,141Z"/><path class="cls-2" d="M124.46,279.06a110,110,0,1,1,58.79-26.88,50.13,50.13,0,0,1-22.44-33.9,70.07,70.07,0,1,0-56.66,21.48A109.73,109.73,0,0,0,124.46,279.06Z"/></g></g></svg>