<svg xmlns="http://www.w3.org/2000/svg" viewBox="0 0 320 320"><defs><style>.cls-1{fill:#ffcbc2;}</style></defs><g id="Layer_2" data-name="Layer 2"><g id="Layer_1-2" data-name="Layer 1"><path class="cls-1" d="M99.78,269.47A99.92,99.92,0,1,1,157.62,258a5,5,0,0,0,4.76,8.79A110,110,0,0,0,220,170c0-51.63-35.81-95-83.87-106.73l23.05-35.09a5,5,0,0,0-.43-6.05l-18-20.43A5,5,0,0,0,137,0H83a5,5,0,0,0-3.75,1.7l-18,20.43a5,5,0,0,0-.43,6.05L83.87,63.27C35.81,75,0,118.37,0,170A109.62,109.62,0,0,0,98.76,279.43a4.52,4.52,0,0,0,.52,0,5,5,0,0,0,.5-10ZM71.27,25.88,85.25,10h49.5l14,15.88L125.5,61.22A110.11,110.11,0,0,0,110,60a110.11,110.11,0,0,0-15.5,1.22Zm170.16,78.69a4.94,4.94,0,0,0-6.22,3.36,5,5,0,0,0,3.36,6.21,100,100,0,1,1-74.68,7.11,5,5,0,1,0-4.61-8.87A110,110,0,1,0,320,210C320,161.7,287.69,118.34,241.43,104.57Z"/></g></g></svg>