<svg xmlns="http://www.w3.org/2000/svg" viewBox="0 0 160 160"><defs><style>.cls-1,.cls-2{fill:#ffcbc2;}.cls-1{isolation:isolate;opacity:0.4;}</style></defs><g id="Layer_2" data-name="Layer 2"><g id="Layer_1-2" data-name="Layer 1"><path class="cls-1" d="M69.13,31.82,80.05,10l-10-10H40L30,10,40.94,31.82A55.42,55.42,0,0,1,69.13,31.82Zm78.7,38.69a55.08,55.08,0,0,0-38.49-20.34,64.91,64.91,0,0,1,9.09,22.5,35,35,0,1,1-30.17,1.55c-.31-1-.66-1.92-1.06-2.86l0-.06c-.12-.28-.24-.56-.37-.84a.31.31,0,0,0,0-.1c-.13-.29-.26-.56-.4-.84l0-.06c-.3-.6-.62-1.2-1-1.79v0c-.16-.27-.31-.54-.48-.8a1.18,1.18,0,0,0-.11-.19,4.51,4.51,0,0,1-.35-.54,2.49,2.49,0,0,0-.19-.3l-.43-.65L83.7,65q-.57-.81-1.17-1.56l-.15-.19-.46-.56-.21-.25-.43-.5-.23-.26-.45-.49L80.39,61l-.68-.7a34.43,34.43,0,0,0-2.85-2.54,54.87,54.87,0,0,0-19.43,75c.23.4.47.79.71,1.18s.48.77.73,1.15v0c.24.38.5.75.76,1.13v0c.26.37.52.74.79,1.1s.54.74.81,1.1l.85,1.08a55,55,0,0,0,85.74-69Z"/><path class="cls-2" d="M62.23,139.53a55,55,0,1,1,29.39-13.44,25.25,25.25,0,0,1-4.24-3.41,24.79,24.79,0,0,1-7-13.54,35,35,0,1,0-28.32,10.74A54.65,54.65,0,0,0,62.23,139.53Z"/></g></g></svg>