<svg xmlns="http://www.w3.org/2000/svg" viewBox="0 0 160 160"><defs><style>.cls-1{fill:#ffcbc2;}</style></defs><g id="Layer_2" data-name="Layer 2"><g id="Layer_1-2" data-name="Layer 1"><path class="cls-1" d="M49.89,134.74A50,50,0,1,1,78.81,129a2.5,2.5,0,1,0,2.38,4.4A55,55,0,0,0,68.07,31.63L79.59,14.09a2.51,2.51,0,0,0-.21-3L70.38.85A2.51,2.51,0,0,0,68.5,0h-27a2.51,2.51,0,0,0-1.88.85l-9,10.21a2.51,2.51,0,0,0-.21,3L41.93,31.63a55,55,0,0,0,7.45,108.09h.26a2.5,2.5,0,0,0,.25-5ZM35.63,12.94l7-7.94H67.37l7,7.94L62.75,30.61A55,55,0,0,0,55,30a55,55,0,0,0-7.75.61Zm85.08,39.34a2.5,2.5,0,1,0-1.42,4.79,50,50,0,1,1-37.35,3.55,2.5,2.5,0,1,0-2.3-4.43,55,55,0,1,0,41.07-3.91Z"/></g></g></svg>